<svg xmlns="http://www.w3.org/2000/svg" xmlns:xlink="http://www.w3.org/1999/xlink" width="59.526" height="67.507" viewBox="0 0 59.526 67.507">
  <defs>
    <filter id="Icon_awesome-angle-right" x="0" y="0" width="59.526" height="67.507" filterUnits="userSpaceOnUse">
      <feOffset input="SourceAlpha"/>
      <feGaussianBlur stdDeviation="7.5" result="blur"/>
      <feFlood flood-opacity="0.071"/>
      <feComposite operator="in" in2="blur"/>
      <feComposite in="SourceGraphic"/>
    </filter>
  </defs>
  <g transform="matrix(1, 0, 0, 1, 0, 0)" filter="url(#Icon_awesome-angle-right)">
    <path id="Icon_awesome-angle-right-2" data-name="Icon awesome-angle-right" d="M15.771,19.2,6.209,28.758a1.681,1.681,0,0,1-2.384,0L2.236,27.169a1.681,1.681,0,0,1,0-2.384l6.778-6.778L2.236,11.229a1.681,1.681,0,0,1,0-2.384l1.582-1.6a1.681,1.681,0,0,1,2.384,0L15.764,16.8a1.683,1.683,0,0,1,.007,2.391Z" transform="translate(38.77 51.75) rotate(180)"/>
  </g>
</svg>
